<svg width="256" height="256" xmlns="http://www.w3.org/2000/svg">

 <g>
  <title>background</title>
  <rect fill="none" id="canvas_background" height="402" width="582" y="-1" x="-1"/>
 </g>
 <g>
  <title>Layer 1</title>
  <path fill="#46c2e3" d="m102.3125,23.0625l18.6875,57.46875c4.8015,-0.69906 9.23454,-0.69189 14.03125,0l18.65625,-57.4375c-16.53317,-3.96338 -34.8429,-3.99306 -51.375,-0.03125zm-15.21875,4.96875c-16.13415,6.61435 -30.35408,17.04519 -41.5,30.1875l48.84375,35.5c3.33541,-3.26576 7.14131,-6.0624 11.3125,-8.25l-18.65625,-57.4375zm81.8125,0l-18.65625,57.4375c4.17791,2.19113 8.00449,4.97742 11.34375,8.25l48.84375,-35.5c-11.1291,-13.13609 -25.34354,-23.56148 -41.53125,-30.1875zm-132.75,43.125c-8.89493,14.34395 -14.52731,30.96041 -15.84375,48.84375l60.375,0c0.7918,-4.71995 2.24994,-9.19784 4.3125,-13.34375c-16.28267,-11.83125 -32.56131,-23.66769 -48.84375,-35.5zm183.6875,0l-48.84375,35.5c2.06256,4.14591 3.5207,8.6238 4.3125,13.34375l60.375,0c-1.31531,-17.84457 -6.92854,-34.46656 -15.84375,-48.84375z" id="upper_half"/>
  <path fill="#46c2e3" d="m20.681982,135.630518c1.3153,17.84457 6.92854,34.46656 15.84375,48.84375l48.84375,-35.5c-2.06256,-4.14591 -3.5207,-8.6238 -4.3125,-13.34375l-60.375,0zm155,0c-0.7918,4.71995 -2.24994,9.19784 -4.3125,13.34375l48.84375,35.5c8.89493,-14.34395 14.52731,-30.96041 15.84375,-48.84375l-60.375,0zm-13.71875,26.28125c-3.33926,3.27258 -7.16584,6.05887 -11.34375,8.25l18.65625,57.4375c16.14052,-6.61696 30.38335,-17.03785 41.53125,-30.1875c-16.28243,-11.83232 -32.56107,-23.66875 -48.84375,-35.5z" id="lower_half"/>
 </g>
</svg>